<svg width="271" height="64" viewBox="0 0 271 64" fill="none" xmlns="http://www.w3.org/2000/svg">
  <path d="M17.632 11.48L24.256 23H15.744L11.456 14.904H9.344V23H1.792V0.599998H9.344V8.952H11.648L16.416 0.599998H24.288L17.632 11.48ZM36.6118 0.599998C38.6811 0.599998 40.4838 0.941332 42.0198 1.624C43.5558 2.30667 44.7398 3.288 45.5718 4.568C46.4038 5.848 46.8198 7.34133 46.8198 9.048C46.8198 10.7547 46.4038 12.248 45.5718 13.528C44.7398 14.808 43.5558 15.7893 42.0198 16.472C40.4838 17.1547 38.6811 17.496 36.6118 17.496H33.3798V23H25.8278V0.599998H36.6118ZM36.1318 11.672C37.1558 11.672 37.9238 11.448 38.4358 11C38.9478 10.5307 39.2038 9.88 39.2038 9.048C39.2038 8.216 38.9478 7.576 38.4358 7.128C37.9238 6.65867 37.1558 6.424 36.1318 6.424H33.3798V11.672H36.1318ZM67.733 17.304V23H49.109V0.599998H67.317V6.296H56.533V8.92H66.005V14.36H56.533V17.304H67.733ZM86.6045 19.096H78.0925L76.5885 23H68.9085L78.7005 0.599998H86.1245L95.9165 23H88.1085L86.6045 19.096ZM84.5245 13.656L82.3485 8.024L80.1725 13.656H84.5245ZM115.931 6.456H109.371V23H101.947V6.456H95.387V0.599998H115.931V6.456ZM118.422 0.599998H125.845V12.248L133.558 0.599998H140.662V23H133.238V11.384L125.558 23H118.422V0.599998ZM161.856 11.256C163.115 11.704 164.075 12.376 164.736 13.272C165.398 14.1467 165.728 15.224 165.728 16.504C165.728 18.5093 164.928 20.0987 163.328 21.272C161.75 22.424 159.51 23 156.608 23H144.64V0.599998H156C158.774 0.599998 160.918 1.112 162.432 2.136C163.968 3.16 164.736 4.6 164.736 6.456C164.736 7.52267 164.48 8.46133 163.968 9.272C163.478 10.0827 162.774 10.744 161.856 11.256ZM152.064 9.208H155.264C156.502 9.208 157.12 8.664 157.12 7.576C157.12 6.44533 156.502 5.88 155.264 5.88H152.064V9.208ZM156.256 17.72C157.494 17.72 158.112 17.1227 158.112 15.928C158.112 14.776 157.494 14.2 156.256 14.2H152.064V17.72H156.256ZM190.502 0.599998V23H182.95V14.744H175.974V23H168.422V0.599998H175.974V8.536H182.95V0.599998H190.502ZM210.292 19.096H201.78L200.276 23H192.596L202.388 0.599998H209.812L219.604 23H211.796L210.292 19.096ZM208.212 13.656L206.036 8.024L203.86 13.656H208.212ZM240.038 0.599998V23H232.614V17.688H230.598L227.174 23H219.27L223.686 16.6C222.236 15.9173 221.116 14.9573 220.326 13.72C219.558 12.4613 219.174 10.9787 219.174 9.272C219.174 7.50133 219.59 5.96533 220.422 4.664C221.276 3.36267 222.481 2.36 224.038 1.656C225.596 0.951998 227.43 0.599998 229.542 0.599998H240.038ZM229.67 6.424C227.75 6.424 226.79 7.33067 226.79 9.144C226.79 11.0427 227.75 11.992 229.67 11.992H232.614V6.424H229.67ZM23.84 40.6V63H16.416V46.456H11.296L11.232 49.048C11.1467 52.248 10.8907 54.872 10.464 56.92C10.0373 58.968 9.29067 60.568 8.224 61.72C7.15733 62.8507 5.632 63.416 3.648 63.416C2.64533 63.416 1.57867 63.2773 0.448 63L0.832 56.952C1.10933 57.016 1.38667 57.048 1.664 57.048C2.45333 57.048 3.05067 56.728 3.456 56.088C3.88267 55.448 4.17067 54.5947 4.32 53.528C4.46933 52.4613 4.576 51.064 4.64 49.336L4.928 40.6H23.84ZM43.6045 59.096H35.0925L33.5885 63H25.9085L35.7005 40.6H43.1245L52.9165 63H45.1085L43.6045 59.096ZM41.5245 53.656L39.3485 48.024L37.1725 53.656H41.5245ZM54.984 40.6H74.408V46.296H62.408V48.888H67.752C70.4827 48.888 72.5733 49.4747 74.024 50.648C75.496 51.8 76.232 53.4747 76.232 55.672C76.232 57.9547 75.4 59.7467 73.736 61.048C72.072 62.3493 69.7573 63 66.792 63H54.984V40.6ZM66.28 57.72C67.0267 57.72 67.6027 57.56 68.008 57.24C68.4347 56.92 68.648 56.4613 68.648 55.864C68.648 54.712 67.8587 54.136 66.28 54.136H62.408V57.72H66.28ZM90.2198 63.512C87.8091 63.512 85.6438 63.0107 83.7238 62.008C81.8038 61.0053 80.2998 59.6187 79.2118 57.848C78.1238 56.056 77.5798 54.04 77.5798 51.8C77.5798 49.56 78.1238 47.5547 79.2118 45.784C80.2998 43.992 81.8038 42.5947 83.7238 41.592C85.6438 40.5893 87.8091 40.088 90.2198 40.088C92.6304 40.088 94.7958 40.5893 96.7158 41.592C98.6358 42.5947 100.14 43.992 101.228 45.784C102.316 47.5547 102.86 49.56 102.86 51.8C102.86 54.04 102.316 56.056 101.228 57.848C100.14 59.6187 98.6358 61.0053 96.7158 62.008C94.7958 63.0107 92.6304 63.512 90.2198 63.512ZM90.2198 57.4C91.1584 57.4 92.0011 57.176 92.7478 56.728C93.5158 56.2587 94.1238 55.608 94.5718 54.776C95.0198 53.9227 95.2438 52.9307 95.2438 51.8C95.2438 50.6693 95.0198 49.688 94.5718 48.856C94.1238 48.0027 93.5158 47.352 92.7478 46.904C92.0011 46.4347 91.1584 46.2 90.2198 46.2C89.2811 46.2 88.4278 46.4347 87.6598 46.904C86.9131 47.352 86.3158 48.0027 85.8678 48.856C85.4198 49.688 85.1958 50.6693 85.1958 51.8C85.1958 52.9307 85.4198 53.9227 85.8678 54.776C86.3158 55.608 86.9131 56.2587 87.6598 56.728C88.4278 57.176 89.2811 57.4 90.2198 57.4ZM116.362 40.6C118.431 40.6 120.234 40.9413 121.77 41.624C123.306 42.3067 124.49 43.288 125.322 44.568C126.154 45.848 126.57 47.3413 126.57 49.048C126.57 50.7547 126.154 52.248 125.322 53.528C124.49 54.808 123.306 55.7893 121.77 56.472C120.234 57.1547 118.431 57.496 116.362 57.496H113.13V63H105.578V40.6H116.362ZM115.882 51.672C116.906 51.672 117.674 51.448 118.186 51C118.698 50.5307 118.954 49.88 118.954 49.048C118.954 48.216 118.698 47.576 118.186 47.128C117.674 46.6587 116.906 46.424 115.882 46.424H113.13V51.672H115.882ZM143.542 59.096H135.03L133.526 63H125.846L135.638 40.6H143.062L152.854 63H145.046L143.542 59.096ZM141.462 53.656L139.286 48.024L137.11 53.656H141.462ZM172.869 46.456H166.309V63H158.885V46.456H152.325V40.6H172.869V46.456ZM186.439 63.512C184.028 63.512 181.863 63.0107 179.943 62.008C178.023 61.0053 176.519 59.6187 175.431 57.848C174.343 56.056 173.799 54.04 173.799 51.8C173.799 49.56 174.343 47.5547 175.431 45.784C176.519 43.992 178.023 42.5947 179.943 41.592C181.863 40.5893 184.028 40.088 186.439 40.088C188.849 40.088 191.015 40.5893 192.935 41.592C194.855 42.5947 196.359 43.992 197.447 45.784C198.535 47.5547 199.079 49.56 199.079 51.8C199.079 54.04 198.535 56.056 197.447 57.848C196.359 59.6187 194.855 61.0053 192.935 62.008C191.015 63.0107 188.849 63.512 186.439 63.512ZM186.439 57.4C187.377 57.4 188.22 57.176 188.967 56.728C189.735 56.2587 190.343 55.608 190.791 54.776C191.239 53.9227 191.463 52.9307 191.463 51.8C191.463 50.6693 191.239 49.688 190.791 48.856C190.343 48.0027 189.735 47.352 188.967 46.904C188.22 46.4347 187.377 46.2 186.439 46.2C185.5 46.2 184.647 46.4347 183.879 46.904C183.132 47.352 182.535 48.0027 182.087 48.856C181.639 49.688 181.415 50.6693 181.415 51.8C181.415 52.9307 181.639 53.9227 182.087 54.776C182.535 55.608 183.132 56.2587 183.879 56.728C184.647 57.176 185.5 57.4 186.439 57.4ZM212.581 40.6C214.65 40.6 216.453 40.9413 217.989 41.624C219.525 42.3067 220.709 43.288 221.541 44.568C222.373 45.848 222.789 47.3413 222.789 49.048C222.789 50.7547 222.373 52.248 221.541 53.528C220.709 54.808 219.525 55.7893 217.989 56.472C216.453 57.1547 214.65 57.496 212.581 57.496H209.349V63H201.797V40.6H212.581ZM212.101 51.672C213.125 51.672 213.893 51.448 214.405 51C214.917 50.5307 215.173 49.88 215.173 49.048C215.173 48.216 214.917 47.576 214.405 47.128C213.893 46.6587 213.125 46.424 212.101 46.424H209.349V51.672H212.101ZM225.078 40.6H232.502V52.248L240.214 40.6H247.318V63H239.894V51.384L232.214 63H225.078V40.6ZM270.945 40.6V63H263.521V57.688H261.505L258.081 63H250.177L254.593 56.6C253.142 55.9173 252.022 54.9573 251.233 53.72C250.465 52.4613 250.081 50.9787 250.081 49.272C250.081 47.5013 250.497 45.9653 251.329 44.664C252.182 43.3627 253.387 42.36 254.945 41.656C256.502 40.952 258.337 40.6 260.449 40.6H270.945ZM260.577 46.424C258.657 46.424 257.697 47.3307 257.697 49.144C257.697 51.0427 258.657 51.992 260.577 51.992H263.521V46.424H260.577Z" fill="white"/>
</svg>
